ply
format ascii 1.0
element vertex 191
property float x
property float y
property float z
end_header
127.620934 -586.079102 1648.344727
-19.995937 -715.221252 1719.622803
-519.887634 -540.435364 1563.612793
487.422150 12.188979 1323.472900
-194.156342 -527.191772 1620.431274
519.145325 -462.467834 1656.070923
701.686096 -512.769958 1595.384644
-323.447205 22.329222 1047.818481
-323.447205 22.329222 1047.818481
-920.304810 -646.554260 1859.559692
-766.972595 -709.428223 1589.587280
-971.115479 -1077.057373 1836.877686
-755.200989 -1090.669556 1629.341064
-62.948139 -797.705627 1644.803101
700.148682 -789.400818 1703.045044
-279.376526 -870.321106 1604.580811
-105.326851 -337.554199 527.489258
-1430.477417 -1484.211670 2706.607178
-277.270721 -857.306519 1551.727173
-335.803192 -530.798218 758.377380
-696.504089 -1100.951904 1572.983765
506.010620 74.843163 1092.687622
-352.236755 46.025497 960.902222
-76.912506 10.049878 209.817398
412.950775 48.816158 1132.005615
-913.190430 -717.651733 1677.236694
-709.953735 -821.107483 1671.438354
-648.701965 -846.588623 1604.300537
-858.520935 -903.923584 1714.167725
-291.763885 -903.646667 1602.341675
-144.179901 -173.321136 279.335419
-950.962708 -1143.168579 1842.403687
-912.531494 -1200.575195 1859.183350
-964.385010 -1371.748047 1964.547729
-845.119080 -1320.869385 1811.878662
604.723572 -185.705826 1434.675171
217.914215 -447.702698 1613.883545
-799.985718 -646.829590 1637.473267
-232.725174 -198.808304 433.680725
-249.957764 -928.445801 1579.203247
-249.957764 -928.445801 1579.203247
-289.404205 -963.384094 1589.587280
63.599323 -340.026947 545.273621
-938.895386 -1057.292969 1662.364258
187.330399 4.340741 395.021515
186.716324 -16.055828 410.410797
602.718384 -132.854736 1398.633545
-1025.610596 -1916.338989 4824.698242
-305.849609 -644.701294 1547.544678
73.144524 -713.266785 1609.923828
-308.104370 -716.857300 1595.107666
118.851891 -637.500732 1023.306763
-256.088074 -1050.337402 1661.762817
-1088.531494 -1205.065430 1905.855835
-612.218994 -914.567871 1361.931030
-636.273804 -950.502380 1415.442993
-976.925842 -1268.513672 1884.740479
551.449707 57.675716 1125.487061
190.870041 -358.859131 1405.051270
137.201538 -340.029053 1219.464355
337.104370 -727.398682 1615.870728
-683.638000 -778.086914 1656.967041
146.176346 -837.913879 1607.107300
-8.141629 -483.406494 921.294250
-896.758545 -1036.618774 1850.569092
-958.254333 -1164.713257 2075.513916
-925.304871 -1125.377808 1923.816772
-239.991409 -265.695526 430.893799
-642.052185 -1062.632446 1471.679810
-171.276108 -294.521820 388.621094
447.040527 93.493187 1068.787109
870.658020 266.616943 3121.381348
54.478439 249.573212 3207.480713
-80.274727 70.048904 912.055725
-67.560478 31.637699 425.012726
-89.890327 26.117407 360.838440
869.360107 -308.480652 3929.095459
869.360107 -308.480652 3929.095459
-367.325836 -155.804901 1314.947754
-0.669809 -122.166214 562.192505
253.154205 -448.457184 1620.431274
604.288147 -714.153198 1716.089111
132.100220 -412.670471 973.942444
105.240334 -381.008911 898.671997
3.778868 -355.940826 833.974121
3.601959 -339.277283 794.931213
-18.570120 -833.319519 1951.194824
-26.356634 -226.605240 529.893005
-79.147514 -680.483032 1591.239380
-198.749573 -586.983154 1358.105469
-198.749573 -586.983154 1358.105469
-18.925192 -721.674500 1579.746338
-18.925192 -721.674500 1579.746338
609.590393 -1643.566528 3173.134766
-742.280090 -966.877136 1554.352783
-152.217880 -1439.435059 2295.982178
783.454041 163.929962 1875.505371
190.534103 46.709263 540.620605
331.469849 116.052605 1378.692017
287.289703 114.635094 1372.922607
51.865059 247.900314 3176.426270
1.535776 65.940231 848.220215
-399.823669 66.106979 1041.286011
566.236023 59.203938 1160.609619
562.130371 -630.807190 3306.776367
35.153820 -327.696869 1509.154785
324.237793 -390.476318 1738.498291
363.871796 -493.793457 2193.463379
308.664459 -469.503967 2087.303955
246.615295 -415.384033 1840.189331
213.531097 -385.162170 1708.429443
117.774971 -285.445282 1261.670776
84.481880 -287.794586 1269.166260
57.913654 -247.121017 1088.673218
96.426514 -281.937164 1242.053101
45.602291 -251.289352 1104.644653
25.575134 -232.154129 1019.898438
-10.006946 -370.327393 1623.581665
101.151443 -480.380524 1598.438354
619.647461 -656.991516 1612.467041
607.671082 -717.181030 1723.171143
505.600159 -682.702515 1632.526245
505.600159 -682.702515 1632.526245
384.557129 -679.278748 1617.008423
384.557129 -679.278748 1617.008423
495.220947 -1173.106812 2772.781494
-356.312988 -831.696899 1968.758057
29.709183 -218.096161 513.225586
1.873943 -259.866638 609.004578
1.873943 -259.866638 609.004578
-55.266495 -250.056870 581.296265
-55.266495 -250.056870 581.296265
-46.595013 -164.909653 382.297424
-68.249413 -241.549164 559.964966
-141.410492 -373.493988 864.341858
-200.388077 -529.265869 1224.829956
-927.766663 -1278.857788 1896.021729
60.414040 41.129047 280.872772
381.279541 75.554985 862.799377
744.050232 161.997925 1873.974976
1386.375244 370.928711 4355.725586
591.146057 188.823517 2243.826416
182.130676 60.587002 722.983215
417.593689 192.543762 2354.838623
119.119995 94.232132 1186.084595
73.315247 85.138901 1074.161011
-269.463318 276.032562 3680.378662
-133.700623 29.270638 425.307892
88.498657 7.281043 222.604630
190.735443 9.542405 408.730804
618.453979 -169.818954 2269.885010
600.392212 -137.162277 1416.752808
612.430664 -152.617462 1412.179077
592.980957 -159.351517 1412.396240
119.714058 -31.677004 278.742126
609.850037 -161.744675 1379.520264
805.305847 -259.217224 1956.597412
236.655930 -177.552399 939.863403
186.328445 -412.239563 2141.311279
29.567192 -65.415489 339.790100
107.367928 -486.806763 2227.503662
619.304443 -386.196289 1654.281494
182.257645 -138.554688 474.103271
212.110275 -434.312317 1454.437134
188.682251 -208.178772 500.557159
635.240662 -700.880005 1685.236694
322.243652 -866.211975 2045.474243
324.456177 -746.757507 1627.897461
351.339783 -741.597900 1616.155029
214.897629 -747.885803 1580.833740
217.365555 92.540184 1133.402222
44.609375 75.248810 967.378357
16.031441 35.121014 452.322876
-564.614868 356.353973 4845.055664
-542.784241 198.202652 2997.136963
560.160522 59.794949 1151.588989
174.038971 23.356981 453.304962
2351.469482 167.384552 4920.313477
82.928894 -25.039810 406.092804
240.121933 -95.663223 1220.274292
186.918625 -34.407589 433.210327
246.549957 -86.155769 605.791687
734.531616 -412.452820 2824.792480
506.074188 -265.263275 1545.461792
506.074188 -265.263275 1545.461792
44.423893 -189.282883 967.786011
197.657791 -395.756409 1526.711792
198.190872 -462.089630 1621.289307
298.818512 -306.878387 762.152588
172.537552 -202.266006 442.262054
169.906250 -746.546753 1607.669800
